<svg width="118" height="26" viewBox="0 0 118 26" fill="none" xmlns="http://www.w3.org/2000/svg">
<g clip-path="url(#clip0_2_264)">
<path fill-rule="evenodd" clip-rule="evenodd" d="M15.0916 0.68859C14.9777 0.822265 14.9712 0.997436 14.9551 4.54559C14.9445 6.79929 14.9144 8.26293 14.8791 8.26293C14.8467 8.26293 14.7696 8.20666 14.708 8.13802C14.5797 7.99438 13.9119 7.55465 13.4282 7.29448C12.1451 6.60496 9.95024 6.24305 8.40276 6.4661C7.28218 6.62731 5.32916 7.36471 4.87852 7.79606C4.80968 7.8623 4.55577 8.05104 4.31428 8.21584C3.89411 8.50234 2.46471 9.97113 2.46471 10.116C2.46471 10.1535 2.30521 10.4312 2.10999 10.7333C1.5277 11.6355 1.2689 12.3167 0.913804 13.8828C0.635823 15.1091 0.75657 17.115 1.2121 18.8371C1.38551 19.4935 2.21193 21.1319 2.4143 21.2205C2.44214 21.2325 2.46471 21.2736 2.46471 21.3115C2.46471 21.545 3.59807 22.7564 4.40832 23.3888C6.5987 25.0991 9.94013 25.6094 12.4713 24.6202C13.1499 24.3553 14.375 23.6917 14.6816 23.4232L14.9096 23.2233L14.9408 23.9846C14.9693 24.6745 14.9863 24.7619 15.124 24.9171L15.2759 25.0887H16.6688C17.9467 25.0887 18.0738 25.0784 18.2096 24.9614L18.3574 24.8345V13.5585C18.3574 3.62224 18.3466 2.27113 18.2634 2.18614C18.2119 2.13307 17.9719 1.97904 17.7307 1.84337C17.4892 1.7077 17.2353 1.54451 17.1665 1.48026C16.3623 0.733281 15.3748 0.3566 15.0916 0.68859ZM67.7693 0.670235C67.6809 0.773982 67.6658 0.96791 67.6658 1.98543C67.6658 3.34571 67.6613 3.33095 68.1812 3.68169C68.3633 3.8046 68.5656 3.95662 68.6307 4.01967C68.6962 4.08271 68.908 4.22038 69.1009 4.32533C69.2942 4.43027 69.6449 4.65611 69.8796 4.8269C70.4412 5.23511 70.774 5.24708 70.9595 4.86641C71.0971 4.58389 71.0938 1.02856 70.9553 0.744853L70.8598 0.548532H69.3665C67.9995 0.548532 67.8645 0.558906 67.7693 0.670235ZM104.812 0.593621C103.921 0.71333 102.416 1.19336 101.659 1.59877C101.462 1.70452 101.223 1.81145 101.129 1.83579C100.927 1.88886 99.7296 2.7344 99.1131 3.26032C98.3047 3.94984 96.9944 5.4849 96.6929 6.0962C96.4823 6.52236 96.1775 7.06704 96.1325 7.09657C96.0535 7.14844 95.4591 8.66874 95.313 9.19426C94.7483 11.2201 94.7492 11.2105 94.7492 17.3962V22.7552L94.9003 23.1973C94.9835 23.4407 95.1202 23.7188 95.2026 23.8154C95.285 23.9124 95.3988 24.0692 95.454 24.1645C95.5983 24.4111 96.2072 24.8214 96.6445 24.9658C97.1566 25.1346 106.498 25.1534 107.602 24.9874C109.369 24.722 111.554 23.8214 112.773 22.8553C112.98 22.6913 113.207 22.5318 113.277 22.5006C113.346 22.4691 113.666 22.1782 113.989 21.8542C114.312 21.5298 114.601 21.2544 114.631 21.2421C114.662 21.2297 114.905 20.9317 115.172 20.5797C115.44 20.2277 115.717 19.8702 115.792 19.7856C115.865 19.701 116.03 19.4158 116.158 19.1516C116.286 18.887 116.428 18.626 116.475 18.571C116.521 18.5155 116.696 18.156 116.866 17.7718C118.134 14.8911 118.178 10.9564 116.975 8.0295C116.78 7.55425 116.582 7.12091 116.536 7.06585C116.49 7.01118 116.351 6.75181 116.228 6.49004C115.763 5.50565 114.184 3.64977 113.212 2.94868C113.04 2.82378 112.758 2.61151 112.585 2.47584C110.817 1.08722 107.362 0.250857 104.812 0.593621ZM107.194 5.17405C108.56 5.55153 109.655 6.72308 110.014 8.19269C110.18 8.87104 110.151 13.1199 109.977 13.7424C109.836 14.2463 109.67 14.6298 109.495 14.8588C108.693 15.9115 108.176 16.3176 107.269 16.6077C105.429 17.196 103.244 15.9446 102.661 13.969C102.474 13.3369 102.371 9.27047 102.52 8.45605C102.961 6.0563 105.058 4.58389 107.194 5.17405ZM28.7018 6.37672C27.3559 6.49484 25.2234 7.29688 24.4896 7.96086C24.3583 8.07977 24.1537 8.2302 24.0348 8.29485C23.6154 8.52389 22.3567 9.98676 22.0024 10.6571C20.9609 12.6271 20.646 13.8043 20.646 15.7243C20.646 23.7863 29.646 28.0902 35.3139 22.7388C37.2481 20.9125 37.3257 20.5071 35.8078 20.1435C35.3824 20.0418 34.773 19.8854 34.4544 19.7968C33.5922 19.5566 33.4437 19.5721 33.048 19.9452C31.177 21.7082 28.5314 21.9209 26.5084 20.4711C25.5233 19.7652 24.6939 18.6939 24.44 17.7997L24.3572 17.5072H31.1152H37.8733L38.0757 17.3065L38.2784 17.1058L38.243 15.7602C38.2227 14.975 38.1705 14.2348 38.1174 13.9826C38.0678 13.7448 37.9806 13.3258 37.9233 13.0512C37.8083 12.4986 37.279 11.272 36.9337 10.7568C36.8111 10.5741 36.6933 10.3646 36.6722 10.2912C36.5977 10.0318 35.2819 8.59252 34.846 8.29325C34.6733 8.17514 34.427 7.98879 34.2979 7.87906C33.1732 6.92419 30.5356 6.21631 28.7018 6.37672ZM46.9455 6.4681C46.4053 6.51837 45.5037 6.74502 45.2167 6.90224C45.1192 6.95571 44.9952 6.99961 44.9406 6.99961C44.1503 6.99961 42.1529 9.00033 41.3968 10.5498C40.4749 12.4379 40.4489 12.6873 40.4707 19.3918L40.4884 24.7679L40.6641 24.9283C40.8905 25.1346 43.3995 25.1817 43.6827 24.985C43.9355 24.809 43.9355 24.8085 43.9678 18.9704L43.9991 13.2843L44.1913 12.7815C44.2974 12.505 44.5419 12.056 44.7348 11.7839C45.3725 10.8842 45.3178 10.9336 46.2248 10.4333C47.1904 9.90015 48.2286 9.94524 49.1698 10.561C49.4184 10.7237 49.6418 10.8566 49.6659 10.8566C49.8972 10.8566 50.8169 12.3143 51.0246 13.0093C51.2826 13.8741 51.3018 14.3389 51.3022 19.7059C51.3029 24.7376 51.3044 24.7994 51.4305 24.9431C51.6393 25.1809 54.2182 25.1681 54.4811 24.9283L54.6568 24.7679L54.691 19.1923L54.7256 13.6167L54.919 12.985C56.1189 9.06777 60.5065 9.13918 61.8181 13.0976L61.9904 13.6167L62.0223 19.2429C62.0491 23.876 62.0697 24.8884 62.1409 24.979C62.2981 25.1801 65.0899 25.1406 65.2723 24.9347L65.4089 24.781V19.1939C65.4089 12.8968 65.4164 13.0237 64.9406 11.5576C64.5306 10.294 63.5668 8.75094 62.9014 8.29205C62.7807 8.20905 62.5595 8.02311 62.4098 7.87946C61.2264 6.74144 58.5692 6.13052 56.8622 6.60417C55.3869 7.01357 54.4326 7.58737 53.4211 8.67272L52.9378 9.19146L52.6688 8.85668C51.3451 7.2079 49.0922 6.26739 46.9455 6.4681ZM68.0589 6.44775C67.635 6.53434 67.6658 5.80652 67.6658 15.8153V24.813L67.831 24.951C67.9968 25.0895 70.4637 25.1705 70.7661 25.0472C71.0596 24.9279 71.0513 25.2068 71.0513 15.7782C71.0513 6.10538 71.0705 6.61414 70.6992 6.46451C70.5472 6.40306 68.3444 6.3891 68.0589 6.44775ZM80.6117 6.53035C79.8444 6.6756 78.7384 7.04269 78.1953 7.33319C77.7748 7.55785 77.124 7.97961 77.0699 8.06261C77.0526 8.08855 76.9114 8.19349 76.7561 8.29485C76.6011 8.3966 76.2092 8.76769 75.8857 9.11963C73.7551 11.436 72.9577 14.1893 73.4372 17.5738C73.7709 19.9273 75.675 22.7464 77.6965 23.8801C78.5358 24.3505 78.7155 24.4367 79.3136 24.655C82.4275 25.7914 86.0297 24.88 88.4168 22.3526C90.4056 20.2473 91.4076 16.6509 90.7775 13.8828C90.4226 12.3202 90.1967 11.7065 89.6778 10.8902C89.5156 10.6339 89.3084 10.29 89.2176 10.1251C88.9849 9.70185 87.8886 8.57137 87.2746 8.12087C85.3231 6.68996 82.868 6.10379 80.6117 6.53035ZM105.584 6.47209C104.869 6.65126 104.173 7.32282 103.909 8.08815L103.745 8.56219V10.8902C103.745 13.1534 103.75 13.2296 103.891 13.6498C104.619 15.8217 107.591 16.012 108.564 13.9491C108.848 13.3465 108.864 13.1578 108.843 10.7226L108.824 8.42932L108.63 7.99717C108.083 6.77694 106.843 6.15646 105.584 6.47209ZM106.698 9.28723L106.912 9.51345V11.2344C106.912 12.7472 106.899 12.9751 106.805 13.1199C106.537 13.5321 106.197 13.5704 105.871 13.2244L105.658 12.9982V11.2556V9.51345L105.871 9.28723C106.025 9.12443 106.14 9.06098 106.284 9.06098C106.43 9.06098 106.545 9.12443 106.698 9.28723ZM10.8207 10.1875C14.6414 11.2293 16.2024 15.8879 13.8421 19.2031C13.3959 19.8295 13.2311 19.9923 12.436 20.5933C10.402 22.1299 7.23328 21.6048 5.45141 19.4357C2.09645 15.352 5.8776 8.83911 10.8207 10.1875ZM30.8335 10.1914C32.4551 10.7218 33.7419 11.8913 34.3434 13.3812L34.559 13.916H29.4545H24.3504L24.4354 13.6601C24.6122 13.1283 25.0331 12.3781 25.3171 12.0872C25.3886 12.0138 25.5093 11.8681 25.5853 11.7628C26.557 10.4152 29.1461 9.63997 30.8335 10.1914ZM83.4954 10.2266C84.5685 10.5565 85.1663 10.9293 85.9227 11.7404C89.7432 15.8396 86.1571 22.6032 80.8499 21.3068C79.9655 21.0909 79.6454 20.9173 78.6279 20.1017C77.1089 18.8838 76.4074 16.4458 76.9445 14.2531C77.6833 11.2397 80.7197 9.37342 83.4954 10.2266ZM112.717 14.6741C112.834 14.7986 112.93 14.965 112.93 15.0444C112.93 15.4194 112.261 17.206 112.058 17.3743C112.036 17.3923 111.842 17.6468 111.625 17.9393C111.409 18.2322 111.138 18.5462 111.025 18.6376C110.909 18.7294 110.608 18.9724 110.353 19.1783C109.656 19.7418 109.014 20.0438 107.758 20.4005C106.22 20.8375 103.773 20.3714 102.436 19.387C101.515 18.7094 100.442 17.5311 100.299 17.0415C100.271 16.9502 100.157 16.6792 100.044 16.439C99.5012 15.2894 99.5887 14.6809 100.298 14.6809C100.654 14.6809 100.793 14.8245 100.962 15.37C101.037 15.6126 101.193 15.9849 101.309 16.1972C101.425 16.4094 101.521 16.607 101.521 16.6361C101.521 16.8935 102.805 18.174 103.351 18.4597C106.66 20.1954 110.485 18.7993 111.519 15.4789C111.843 14.4363 112.242 14.1693 112.717 14.6741Z" fill="white"/>
<path fill-rule="evenodd" clip-rule="evenodd" d="M15.0916 0.68859C14.9777 0.822265 14.9712 0.997436 14.9551 4.54559C14.9445 6.79929 14.9144 8.26293 14.8791 8.26293C14.8467 8.26293 14.7696 8.20666 14.708 8.13802C14.5797 7.99438 13.9119 7.55465 13.4282 7.29448C12.1451 6.60496 9.95024 6.24305 8.40276 6.4661C7.28218 6.62731 5.32916 7.36471 4.87852 7.79606C4.80968 7.8623 4.55577 8.05104 4.31428 8.21584C3.89411 8.50234 2.46471 9.97113 2.46471 10.116C2.46471 10.1535 2.30521 10.4312 2.10999 10.7333C1.5277 11.6355 1.2689 12.3167 0.913804 13.8828C0.635823 15.1091 0.75657 17.115 1.2121 18.8371C1.38551 19.4935 2.21193 21.1319 2.4143 21.2205C2.44214 21.2325 2.46471 21.2736 2.46471 21.3115C2.46471 21.545 3.59807 22.7564 4.40832 23.3888C6.5987 25.0991 9.94013 25.6094 12.4713 24.6202C13.1499 24.3553 14.375 23.6917 14.6816 23.4232L14.9096 23.2233L14.9408 23.9846C14.9693 24.6745 14.9863 24.7619 15.124 24.9171L15.2759 25.0887H16.6688C17.9467 25.0887 18.0738 25.0784 18.2096 24.9614L18.3574 24.8345V13.5585C18.3574 3.62224 18.3466 2.27113 18.2634 2.18614C18.2119 2.13307 17.9719 1.97904 17.7307 1.84337C17.4892 1.7077 17.2353 1.54451 17.1665 1.48026C16.3623 0.733281 15.3748 0.3566 15.0916 0.68859ZM67.7693 0.670235C67.6809 0.773982 67.6658 0.96791 67.6658 1.98543C67.6658 3.34571 67.6613 3.33095 68.1812 3.68169C68.3633 3.8046 68.5656 3.95662 68.6307 4.01967C68.6962 4.08271 68.908 4.22038 69.1009 4.32533C69.2942 4.43027 69.6449 4.65611 69.8796 4.8269C70.4412 5.23511 70.774 5.24708 70.9595 4.86641C71.0971 4.58389 71.0938 1.02856 70.9553 0.744853L70.8598 0.548532H69.3665C67.9995 0.548532 67.8645 0.558906 67.7693 0.670235ZM104.812 0.593621C103.921 0.71333 102.416 1.19336 101.659 1.59877C101.462 1.70452 101.223 1.81145 101.129 1.83579C100.927 1.88886 99.7296 2.7344 99.1131 3.26032C98.3047 3.94984 96.9944 5.4849 96.6929 6.0962C96.4823 6.52236 96.1775 7.06704 96.1325 7.09657C96.0535 7.14844 95.4591 8.66874 95.313 9.19426C94.7483 11.2201 94.7492 11.2105 94.7492 17.3962V22.7552L94.9003 23.1973C94.9835 23.4407 95.1202 23.7188 95.2026 23.8154C95.285 23.9124 95.3988 24.0692 95.454 24.1645C95.5983 24.4111 96.2072 24.8214 96.6445 24.9658C97.1566 25.1346 106.498 25.1534 107.602 24.9874C109.369 24.722 111.554 23.8214 112.773 22.8553C112.98 22.6913 113.207 22.5318 113.277 22.5006C113.346 22.4691 113.666 22.1782 113.989 21.8542C114.312 21.5298 114.601 21.2544 114.631 21.2421C114.662 21.2297 114.905 20.9317 115.172 20.5797C115.44 20.2277 115.717 19.8702 115.792 19.7856C115.865 19.701 116.03 19.4158 116.158 19.1516C116.286 18.887 116.428 18.626 116.475 18.571C116.521 18.5155 116.696 18.156 116.866 17.7718C118.134 14.8911 118.178 10.9564 116.975 8.0295C116.78 7.55425 116.582 7.12091 116.536 7.06585C116.49 7.01118 116.351 6.75181 116.228 6.49004C115.763 5.50565 114.184 3.64977 113.212 2.94868C113.04 2.82378 112.758 2.61151 112.585 2.47584C110.817 1.08722 107.362 0.250857 104.812 0.593621ZM107.194 5.17405C108.56 5.55153 109.655 6.72308 110.014 8.19269C110.18 8.87104 110.151 13.1199 109.977 13.7424C109.836 14.2463 109.67 14.6298 109.495 14.8588C108.693 15.9115 108.176 16.3176 107.269 16.6077C105.429 17.196 103.244 15.9446 102.661 13.969C102.474 13.3369 102.371 9.27047 102.52 8.45605C102.961 6.0563 105.058 4.58389 107.194 5.17405ZM28.7018 6.37672C27.3559 6.49484 25.2234 7.29688 24.4896 7.96086C24.3583 8.07977 24.1537 8.2302 24.0348 8.29485C23.6154 8.52389 22.3567 9.98676 22.0024 10.6571C20.9609 12.6271 20.646 13.8043 20.646 15.7243C20.646 23.7863 29.646 28.0902 35.3139 22.7388C37.2481 20.9125 37.3257 20.5071 35.8078 20.1435C35.3824 20.0418 34.773 19.8854 34.4544 19.7968C33.5922 19.5566 33.4437 19.5721 33.048 19.9452C31.177 21.7082 28.5314 21.9209 26.5084 20.4711C25.5233 19.7652 24.6939 18.6939 24.44 17.7997L24.3572 17.5072H31.1152H37.8733L38.0757 17.3065L38.2784 17.1058L38.243 15.7602C38.2227 14.975 38.1705 14.2348 38.1174 13.9826C38.0678 13.7448 37.9806 13.3258 37.9233 13.0512C37.8083 12.4986 37.279 11.272 36.9337 10.7568C36.8111 10.5741 36.6933 10.3646 36.6722 10.2912C36.5977 10.0318 35.2819 8.59252 34.846 8.29325C34.6733 8.17514 34.427 7.98879 34.2979 7.87906C33.1732 6.92419 30.5356 6.21631 28.7018 6.37672ZM46.9455 6.4681C46.4053 6.51837 45.5037 6.74502 45.2167 6.90224C45.1192 6.95571 44.9952 6.99961 44.9406 6.99961C44.1503 6.99961 42.1529 9.00033 41.3968 10.5498C40.4749 12.4379 40.4489 12.6873 40.4707 19.3918L40.4884 24.7679L40.6641 24.9283C40.8905 25.1346 43.3995 25.1817 43.6827 24.985C43.9355 24.809 43.9355 24.8085 43.9678 18.9704L43.9991 13.2843L44.1913 12.7815C44.2974 12.505 44.5419 12.056 44.7348 11.7839C45.3725 10.8842 45.3178 10.9336 46.2248 10.4333C47.1904 9.90015 48.2286 9.94524 49.1698 10.561C49.4184 10.7237 49.6418 10.8566 49.6659 10.8566C49.8972 10.8566 50.8169 12.3143 51.0246 13.0093C51.2826 13.8741 51.3018 14.3389 51.3022 19.7059C51.3029 24.7376 51.3044 24.7994 51.4305 24.9431C51.6393 25.1809 54.2182 25.1681 54.4811 24.9283L54.6568 24.7679L54.691 19.1923L54.7256 13.6167L54.919 12.985C56.1189 9.06777 60.5065 9.13918 61.8181 13.0976L61.9904 13.6167L62.0223 19.2429C62.0491 23.876 62.0697 24.8884 62.1409 24.979C62.2981 25.1801 65.0899 25.1406 65.2723 24.9347L65.4089 24.781V19.1939C65.4089 12.8968 65.4164 13.0237 64.9406 11.5576C64.5306 10.294 63.5668 8.75094 62.9014 8.29205C62.7807 8.20905 62.5595 8.02311 62.4098 7.87946C61.2264 6.74144 58.5692 6.13052 56.8622 6.60417C55.3869 7.01357 54.4326 7.58737 53.4211 8.67272L52.9378 9.19146L52.6688 8.85668C51.3451 7.2079 49.0922 6.26739 46.9455 6.4681ZM68.0589 6.44775C67.635 6.53434 67.6658 5.80652 67.6658 15.8153V24.813L67.831 24.951C67.9968 25.0895 70.4637 25.1705 70.7661 25.0472C71.0596 24.9279 71.0513 25.2068 71.0513 15.7782C71.0513 6.10538 71.0705 6.61414 70.6992 6.46451C70.5472 6.40306 68.3444 6.3891 68.0589 6.44775ZM80.6117 6.53035C79.8444 6.6756 78.7384 7.04269 78.1953 7.33319C77.7748 7.55785 77.124 7.97961 77.0699 8.06261C77.0526 8.08855 76.9114 8.19349 76.7561 8.29485C76.6011 8.3966 76.2092 8.76769 75.8857 9.11963C73.7551 11.436 72.9577 14.1893 73.4372 17.5738C73.7709 19.9273 75.675 22.7464 77.6965 23.8801C78.5358 24.3505 78.7155 24.4367 79.3136 24.655C82.4275 25.7914 86.0297 24.88 88.4168 22.3526C90.4056 20.2473 91.4076 16.6509 90.7775 13.8828C90.4226 12.3202 90.1967 11.7065 89.6778 10.8902C89.5156 10.6339 89.3084 10.29 89.2176 10.1251C88.9849 9.70185 87.8886 8.57137 87.2746 8.12087C85.3231 6.68996 82.868 6.10379 80.6117 6.53035ZM105.584 6.47209C104.869 6.65126 104.173 7.32282 103.909 8.08815L103.745 8.56219V10.8902C103.745 13.1534 103.75 13.2296 103.891 13.6498C104.619 15.8217 107.591 16.012 108.564 13.9491C108.848 13.3465 108.864 13.1578 108.843 10.7226L108.824 8.42932L108.63 7.99717C108.083 6.77694 106.843 6.15646 105.584 6.47209ZM106.698 9.28723L106.912 9.51345V11.2344C106.912 12.7472 106.899 12.9751 106.805 13.1199C106.537 13.5321 106.197 13.5704 105.871 13.2244L105.658 12.9982V11.2556V9.51345L105.871 9.28723C106.025 9.12443 106.14 9.06098 106.284 9.06098C106.43 9.06098 106.545 9.12443 106.698 9.28723ZM10.8207 10.1875C14.6414 11.2293 16.2024 15.8879 13.8421 19.2031C13.3959 19.8295 13.2311 19.9923 12.436 20.5933C10.402 22.1299 7.23328 21.6048 5.45141 19.4357C2.09645 15.352 5.8776 8.83911 10.8207 10.1875ZM30.8335 10.1914C32.4551 10.7218 33.7419 11.8913 34.3434 13.3812L34.559 13.916H29.4545H24.3504L24.4354 13.6601C24.6122 13.1283 25.0331 12.3781 25.3171 12.0872C25.3886 12.0138 25.5093 11.8681 25.5853 11.7628C26.557 10.4152 29.1461 9.63997 30.8335 10.1914ZM83.4954 10.2266C84.5685 10.5565 85.1663 10.9293 85.9227 11.7404C89.7432 15.8396 86.1571 22.6032 80.8499 21.3068C79.9655 21.0909 79.6454 20.9173 78.6279 20.1017C77.1089 18.8838 76.4074 16.4458 76.9445 14.2531C77.6833 11.2397 80.7197 9.37342 83.4954 10.2266ZM112.717 14.6741C112.834 14.7986 112.93 14.965 112.93 15.0444C112.93 15.4194 112.261 17.206 112.058 17.3743C112.036 17.3923 111.842 17.6468 111.625 17.9393C111.409 18.2322 111.138 18.5462 111.025 18.6376C110.909 18.7294 110.608 18.9724 110.353 19.1783C109.656 19.7418 109.014 20.0438 107.758 20.4005C106.22 20.8375 103.773 20.3714 102.436 19.387C101.515 18.7094 100.442 17.5311 100.299 17.0415C100.271 16.9502 100.157 16.6792 100.044 16.439C99.5012 15.2894 99.5887 14.6809 100.298 14.6809C100.654 14.6809 100.793 14.8245 100.962 15.37C101.037 15.6126 101.193 15.9849 101.309 16.1972C101.425 16.4094 101.521 16.607 101.521 16.6361C101.521 16.8935 102.805 18.174 103.351 18.4597C106.66 20.1954 110.485 18.7993 111.519 15.4789C111.843 14.4363 112.242 14.1693 112.717 14.6741Z" fill="white"/>
<path fill-rule="evenodd" clip-rule="evenodd" d="M15.0916 0.68859C14.9777 0.822265 14.9712 0.997436 14.9551 4.54559C14.9445 6.79929 14.9144 8.26293 14.8791 8.26293C14.8467 8.26293 14.7696 8.20666 14.708 8.13802C14.5797 7.99438 13.9119 7.55465 13.4282 7.29448C12.1451 6.60496 9.95024 6.24305 8.40276 6.4661C7.28218 6.62731 5.32916 7.36471 4.87852 7.79606C4.80968 7.8623 4.55577 8.05104 4.31428 8.21584C3.89411 8.50234 2.46471 9.97113 2.46471 10.116C2.46471 10.1535 2.30521 10.4312 2.10999 10.7333C1.5277 11.6355 1.2689 12.3167 0.913804 13.8828C0.635823 15.1091 0.75657 17.115 1.2121 18.8371C1.38551 19.4935 2.21193 21.1319 2.4143 21.2205C2.44214 21.2325 2.46471 21.2736 2.46471 21.3115C2.46471 21.545 3.59807 22.7564 4.40832 23.3888C6.5987 25.0991 9.94013 25.6094 12.4713 24.6202C13.1499 24.3553 14.375 23.6917 14.6816 23.4232L14.9096 23.2233L14.9408 23.9846C14.9693 24.6745 14.9863 24.7619 15.124 24.9171L15.2759 25.0887H16.6688C17.9467 25.0887 18.0738 25.0784 18.2096 24.9614L18.3574 24.8345V13.5585C18.3574 3.62224 18.3466 2.27113 18.2634 2.18614C18.2119 2.13307 17.9719 1.97904 17.7307 1.84337C17.4892 1.7077 17.2353 1.54451 17.1665 1.48026C16.3623 0.733281 15.3748 0.3566 15.0916 0.68859ZM67.7693 0.670235C67.6809 0.773982 67.6658 0.96791 67.6658 1.98543C67.6658 3.34571 67.6613 3.33095 68.1812 3.68169C68.3633 3.8046 68.5656 3.95662 68.6307 4.01967C68.6962 4.08271 68.908 4.22038 69.1009 4.32533C69.2942 4.43027 69.6449 4.65611 69.8796 4.8269C70.4412 5.23511 70.774 5.24708 70.9595 4.86641C71.0971 4.58389 71.0938 1.02856 70.9553 0.744853L70.8598 0.548532H69.3665C67.9995 0.548532 67.8645 0.558906 67.7693 0.670235ZM104.812 0.593621C103.921 0.71333 102.416 1.19336 101.659 1.59877C101.462 1.70452 101.223 1.81145 101.129 1.83579C100.927 1.88886 99.7296 2.7344 99.1131 3.26032C98.3047 3.94984 96.9944 5.4849 96.6929 6.0962C96.4823 6.52236 96.1775 7.06704 96.1325 7.09657C96.0535 7.14844 95.4591 8.66874 95.313 9.19426C94.7483 11.2201 94.7492 11.2105 94.7492 17.3962V22.7552L94.9003 23.1973C94.9835 23.4407 95.1202 23.7188 95.2026 23.8154C95.285 23.9124 95.3988 24.0692 95.454 24.1645C95.5983 24.4111 96.2072 24.8214 96.6445 24.9658C97.1566 25.1346 106.498 25.1534 107.602 24.9874C109.369 24.722 111.554 23.8214 112.773 22.8553C112.98 22.6913 113.207 22.5318 113.277 22.5006C113.346 22.4691 113.666 22.1782 113.989 21.8542C114.312 21.5298 114.601 21.2544 114.631 21.2421C114.662 21.2297 114.905 20.9317 115.172 20.5797C115.44 20.2277 115.717 19.8702 115.792 19.7856C115.865 19.701 116.03 19.4158 116.158 19.1516C116.286 18.887 116.428 18.626 116.475 18.571C116.521 18.5155 116.696 18.156 116.866 17.7718C118.134 14.8911 118.178 10.9564 116.975 8.0295C116.78 7.55425 116.582 7.12091 116.536 7.06585C116.49 7.01118 116.351 6.75181 116.228 6.49004C115.763 5.50565 114.184 3.64977 113.212 2.94868C113.04 2.82378 112.758 2.61151 112.585 2.47584C110.817 1.08722 107.362 0.250857 104.812 0.593621ZM107.194 5.17405C108.56 5.55153 109.655 6.72308 110.014 8.19269C110.18 8.87104 110.151 13.1199 109.977 13.7424C109.836 14.2463 109.67 14.6298 109.495 14.8588C108.693 15.9115 108.176 16.3176 107.269 16.6077C105.429 17.196 103.244 15.9446 102.661 13.969C102.474 13.3369 102.371 9.27047 102.52 8.45605C102.961 6.0563 105.058 4.58389 107.194 5.17405ZM28.7018 6.37672C27.3559 6.49484 25.2234 7.29688 24.4896 7.96086C24.3583 8.07977 24.1537 8.2302 24.0348 8.29485C23.6154 8.52389 22.3567 9.98676 22.0024 10.6571C20.9609 12.6271 20.646 13.8043 20.646 15.7243C20.646 23.7863 29.646 28.0902 35.3139 22.7388C37.2481 20.9125 37.3257 20.5071 35.8078 20.1435C35.3824 20.0418 34.773 19.8854 34.4544 19.7968C33.5922 19.5566 33.4437 19.5721 33.048 19.9452C31.177 21.7082 28.5314 21.9209 26.5084 20.4711C25.5233 19.7652 24.6939 18.6939 24.44 17.7997L24.3572 17.5072H31.1152H37.8733L38.0757 17.3065L38.2784 17.1058L38.243 15.7602C38.2227 14.975 38.1705 14.2348 38.1174 13.9826C38.0678 13.7448 37.9806 13.3258 37.9233 13.0512C37.8083 12.4986 37.279 11.272 36.9337 10.7568C36.8111 10.5741 36.6933 10.3646 36.6722 10.2912C36.5977 10.0318 35.2819 8.59252 34.846 8.29325C34.6733 8.17514 34.427 7.98879 34.2979 7.87906C33.1732 6.92419 30.5356 6.21631 28.7018 6.37672ZM46.9455 6.4681C46.4053 6.51837 45.5037 6.74502 45.2167 6.90224C45.1192 6.95571 44.9952 6.99961 44.9406 6.99961C44.1503 6.99961 42.1529 9.00033 41.3968 10.5498C40.4749 12.4379 40.4489 12.6873 40.4707 19.3918L40.4884 24.7679L40.6641 24.9283C40.8905 25.1346 43.3995 25.1817 43.6827 24.985C43.9355 24.809 43.9355 24.8085 43.9678 18.9704L43.9991 13.2843L44.1913 12.7815C44.2974 12.505 44.5419 12.056 44.7348 11.7839C45.3725 10.8842 45.3178 10.9336 46.2248 10.4333C47.1904 9.90015 48.2286 9.94524 49.1698 10.561C49.4184 10.7237 49.6418 10.8566 49.6659 10.8566C49.8972 10.8566 50.8169 12.3143 51.0246 13.0093C51.2826 13.8741 51.3018 14.3389 51.3022 19.7059C51.3029 24.7376 51.3044 24.7994 51.4305 24.9431C51.6393 25.1809 54.2182 25.1681 54.4811 24.9283L54.6568 24.7679L54.691 19.1923L54.7256 13.6167L54.919 12.985C56.1189 9.06777 60.5065 9.13918 61.8181 13.0976L61.9904 13.6167L62.0223 19.2429C62.0491 23.876 62.0697 24.8884 62.1409 24.979C62.2981 25.1801 65.0899 25.1406 65.2723 24.9347L65.4089 24.781V19.1939C65.4089 12.8968 65.4164 13.0237 64.9406 11.5576C64.5306 10.294 63.5668 8.75094 62.9014 8.29205C62.7807 8.20905 62.5595 8.02311 62.4098 7.87946C61.2264 6.74144 58.5692 6.13052 56.8622 6.60417C55.3869 7.01357 54.4326 7.58737 53.4211 8.67272L52.9378 9.19146L52.6688 8.85668C51.3451 7.2079 49.0922 6.26739 46.9455 6.4681ZM68.0589 6.44775C67.635 6.53434 67.6658 5.80652 67.6658 15.8153V24.813L67.831 24.951C67.9968 25.0895 70.4637 25.1705 70.7661 25.0472C71.0596 24.9279 71.0513 25.2068 71.0513 15.7782C71.0513 6.10538 71.0705 6.61414 70.6992 6.46451C70.5472 6.40306 68.3444 6.3891 68.0589 6.44775ZM80.6117 6.53035C79.8444 6.6756 78.7384 7.04269 78.1953 7.33319C77.7748 7.55785 77.124 7.97961 77.0699 8.06261C77.0526 8.08855 76.9114 8.19349 76.7561 8.29485C76.6011 8.3966 76.2092 8.76769 75.8857 9.11963C73.7551 11.436 72.9577 14.1893 73.4372 17.5738C73.7709 19.9273 75.675 22.7464 77.6965 23.8801C78.5358 24.3505 78.7155 24.4367 79.3136 24.655C82.4275 25.7914 86.0297 24.88 88.4168 22.3526C90.4056 20.2473 91.4076 16.6509 90.7775 13.8828C90.4226 12.3202 90.1967 11.7065 89.6778 10.8902C89.5156 10.6339 89.3084 10.29 89.2176 10.1251C88.9849 9.70185 87.8886 8.57137 87.2746 8.12087C85.3231 6.68996 82.868 6.10379 80.6117 6.53035ZM105.584 6.47209C104.869 6.65126 104.173 7.32282 103.909 8.08815L103.745 8.56219V10.8902C103.745 13.1534 103.75 13.2296 103.891 13.6498C104.619 15.8217 107.591 16.012 108.564 13.9491C108.848 13.3465 108.864 13.1578 108.843 10.7226L108.824 8.42932L108.63 7.99717C108.083 6.77694 106.843 6.15646 105.584 6.47209ZM106.698 9.28723L106.912 9.51345V11.2344C106.912 12.7472 106.899 12.9751 106.805 13.1199C106.537 13.5321 106.197 13.5704 105.871 13.2244L105.658 12.9982V11.2556V9.51345L105.871 9.28723C106.025 9.12443 106.14 9.06098 106.284 9.06098C106.43 9.06098 106.545 9.12443 106.698 9.28723ZM10.8207 10.1875C14.6414 11.2293 16.2024 15.8879 13.8421 19.2031C13.3959 19.8295 13.2311 19.9923 12.436 20.5933C10.402 22.1299 7.23328 21.6048 5.45141 19.4357C2.09645 15.352 5.8776 8.83911 10.8207 10.1875ZM30.8335 10.1914C32.4551 10.7218 33.7419 11.8913 34.3434 13.3812L34.559 13.916H29.4545H24.3504L24.4354 13.6601C24.6122 13.1283 25.0331 12.3781 25.3171 12.0872C25.3886 12.0138 25.5093 11.8681 25.5853 11.7628C26.557 10.4152 29.1461 9.63997 30.8335 10.1914ZM83.4954 10.2266C84.5685 10.5565 85.1663 10.9293 85.9227 11.7404C89.7432 15.8396 86.1571 22.6032 80.8499 21.3068C79.9655 21.0909 79.6454 20.9173 78.6279 20.1017C77.1089 18.8838 76.4074 16.4458 76.9445 14.2531C77.6833 11.2397 80.7197 9.37342 83.4954 10.2266ZM112.717 14.6741C112.834 14.7986 112.93 14.965 112.93 15.0444C112.93 15.4194 112.261 17.206 112.058 17.3743C112.036 17.3923 111.842 17.6468 111.625 17.9393C111.409 18.2322 111.138 18.5462 111.025 18.6376C110.909 18.7294 110.608 18.9724 110.353 19.1783C109.656 19.7418 109.014 20.0438 107.758 20.4005C106.22 20.8375 103.773 20.3714 102.436 19.387C101.515 18.7094 100.442 17.5311 100.299 17.0415C100.271 16.9502 100.157 16.6792 100.044 16.439C99.5012 15.2894 99.5887 14.6809 100.298 14.6809C100.654 14.6809 100.793 14.8245 100.962 15.37C101.037 15.6126 101.193 15.9849 101.309 16.1972C101.425 16.4094 101.521 16.607 101.521 16.6361C101.521 16.8935 102.805 18.174 103.351 18.4597C106.66 20.1954 110.485 18.7993 111.519 15.4789C111.843 14.4363 112.242 14.1693 112.717 14.6741Z" fill="white"/>
<path fill-rule="evenodd" clip-rule="evenodd" d="M15.0916 0.68859C14.9777 0.822265 14.9712 0.997436 14.9551 4.54559C14.9445 6.79929 14.9144 8.26293 14.8791 8.26293C14.8467 8.26293 14.7696 8.20666 14.708 8.13802C14.5797 7.99438 13.9119 7.55465 13.4282 7.29448C12.1451 6.60496 9.95024 6.24305 8.40276 6.4661C7.28218 6.62731 5.32916 7.36471 4.87852 7.79606C4.80968 7.8623 4.55577 8.05104 4.31428 8.21584C3.89411 8.50234 2.46471 9.97113 2.46471 10.116C2.46471 10.1535 2.30521 10.4312 2.10999 10.7333C1.5277 11.6355 1.2689 12.3167 0.913804 13.8828C0.635823 15.1091 0.75657 17.115 1.2121 18.8371C1.38551 19.4935 2.21193 21.1319 2.4143 21.2205C2.44214 21.2325 2.46471 21.2736 2.46471 21.3115C2.46471 21.545 3.59807 22.7564 4.40832 23.3888C6.5987 25.0991 9.94013 25.6094 12.4713 24.6202C13.1499 24.3553 14.375 23.6917 14.6816 23.4232L14.9096 23.2233L14.9408 23.9846C14.9693 24.6745 14.9863 24.7619 15.124 24.9171L15.2759 25.0887H16.6688C17.9467 25.0887 18.0738 25.0784 18.2096 24.9614L18.3574 24.8345V13.5585C18.3574 3.62224 18.3466 2.27113 18.2634 2.18614C18.2119 2.13307 17.9719 1.97904 17.7307 1.84337C17.4892 1.7077 17.2353 1.54451 17.1665 1.48026C16.3623 0.733281 15.3748 0.3566 15.0916 0.68859ZM67.7693 0.670235C67.6809 0.773982 67.6658 0.96791 67.6658 1.98543C67.6658 3.34571 67.6613 3.33095 68.1812 3.68169C68.3633 3.8046 68.5656 3.95662 68.6307 4.01967C68.6962 4.08271 68.908 4.22038 69.1009 4.32533C69.2942 4.43027 69.6449 4.65611 69.8796 4.8269C70.4412 5.23511 70.774 5.24708 70.9595 4.86641C71.0971 4.58389 71.0938 1.02856 70.9553 0.744853L70.8598 0.548532H69.3665C67.9995 0.548532 67.8645 0.558906 67.7693 0.670235ZM104.812 0.593621C103.921 0.71333 102.416 1.19336 101.659 1.59877C101.462 1.70452 101.223 1.81145 101.129 1.83579C100.927 1.88886 99.7296 2.7344 99.1131 3.26032C98.3047 3.94984 96.9944 5.4849 96.6929 6.0962C96.4823 6.52236 96.1775 7.06704 96.1325 7.09657C96.0535 7.14844 95.4591 8.66874 95.313 9.19426C94.7483 11.2201 94.7492 11.2105 94.7492 17.3962V22.7552L94.9003 23.1973C94.9835 23.4407 95.1202 23.7188 95.2026 23.8154C95.285 23.9124 95.3988 24.0692 95.454 24.1645C95.5983 24.4111 96.2072 24.8214 96.6445 24.9658C97.1566 25.1346 106.498 25.1534 107.602 24.9874C109.369 24.722 111.554 23.8214 112.773 22.8553C112.98 22.6913 113.207 22.5318 113.277 22.5006C113.346 22.4691 113.666 22.1782 113.989 21.8542C114.312 21.5298 114.601 21.2544 114.631 21.2421C114.662 21.2297 114.905 20.9317 115.172 20.5797C115.44 20.2277 115.717 19.8702 115.792 19.7856C115.865 19.701 116.03 19.4158 116.158 19.1516C116.286 18.887 116.428 18.626 116.475 18.571C116.521 18.5155 116.696 18.156 116.866 17.7718C118.134 14.8911 118.178 10.9564 116.975 8.0295C116.78 7.55425 116.582 7.12091 116.536 7.06585C116.49 7.01118 116.351 6.75181 116.228 6.49004C115.763 5.50565 114.184 3.64977 113.212 2.94868C113.04 2.82378 112.758 2.61151 112.585 2.47584C110.817 1.08722 107.362 0.250857 104.812 0.593621ZM107.194 5.17405C108.56 5.55153 109.655 6.72308 110.014 8.19269C110.18 8.87104 110.151 13.1199 109.977 13.7424C109.836 14.2463 109.67 14.6298 109.495 14.8588C108.693 15.9115 108.176 16.3176 107.269 16.6077C105.429 17.196 103.244 15.9446 102.661 13.969C102.474 13.3369 102.371 9.27047 102.52 8.45605C102.961 6.0563 105.058 4.58389 107.194 5.17405ZM28.7018 6.37672C27.3559 6.49484 25.2234 7.29688 24.4896 7.96086C24.3583 8.07977 24.1537 8.2302 24.0348 8.29485C23.6154 8.52389 22.3567 9.98676 22.0024 10.6571C20.9609 12.6271 20.646 13.8043 20.646 15.7243C20.646 23.7863 29.646 28.0902 35.3139 22.7388C37.2481 20.9125 37.3257 20.5071 35.8078 20.1435C35.3824 20.0418 34.773 19.8854 34.4544 19.7968C33.5922 19.5566 33.4437 19.5721 33.048 19.9452C31.177 21.7082 28.5314 21.9209 26.5084 20.4711C25.5233 19.7652 24.6939 18.6939 24.44 17.7997L24.3572 17.5072H31.1152H37.8733L38.0757 17.3065L38.2784 17.1058L38.243 15.7602C38.2227 14.975 38.1705 14.2348 38.1174 13.9826C38.0678 13.7448 37.9806 13.3258 37.9233 13.0512C37.8083 12.4986 37.279 11.272 36.9337 10.7568C36.8111 10.5741 36.6933 10.3646 36.6722 10.2912C36.5977 10.0318 35.2819 8.59252 34.846 8.29325C34.6733 8.17514 34.427 7.98879 34.2979 7.87906C33.1732 6.92419 30.5356 6.21631 28.7018 6.37672ZM46.9455 6.4681C46.4053 6.51837 45.5037 6.74502 45.2167 6.90224C45.1192 6.95571 44.9952 6.99961 44.9406 6.99961C44.1503 6.99961 42.1529 9.00033 41.3968 10.5498C40.4749 12.4379 40.4489 12.6873 40.4707 19.3918L40.4884 24.7679L40.6641 24.9283C40.8905 25.1346 43.3995 25.1817 43.6827 24.985C43.9355 24.809 43.9355 24.8085 43.9678 18.9704L43.9991 13.2843L44.1913 12.7815C44.2974 12.505 44.5419 12.056 44.7348 11.7839C45.3725 10.8842 45.3178 10.9336 46.2248 10.4333C47.1904 9.90015 48.2286 9.94524 49.1698 10.561C49.4184 10.7237 49.6418 10.8566 49.6659 10.8566C49.8972 10.8566 50.8169 12.3143 51.0246 13.0093C51.2826 13.8741 51.3018 14.3389 51.3022 19.7059C51.3029 24.7376 51.3044 24.7994 51.4305 24.9431C51.6393 25.1809 54.2182 25.1681 54.4811 24.9283L54.6568 24.7679L54.691 19.1923L54.7256 13.6167L54.919 12.985C56.1189 9.06777 60.5065 9.13918 61.8181 13.0976L61.9904 13.6167L62.0223 19.2429C62.0491 23.876 62.0697 24.8884 62.1409 24.979C62.2981 25.1801 65.0899 25.1406 65.2723 24.9347L65.4089 24.781V19.1939C65.4089 12.8968 65.4164 13.0237 64.9406 11.5576C64.5306 10.294 63.5668 8.75094 62.9014 8.29205C62.7807 8.20905 62.5595 8.02311 62.4098 7.87946C61.2264 6.74144 58.5692 6.13052 56.8622 6.60417C55.3869 7.01357 54.4326 7.58737 53.4211 8.67272L52.9378 9.19146L52.6688 8.85668C51.3451 7.2079 49.0922 6.26739 46.9455 6.4681ZM68.0589 6.44775C67.635 6.53434 67.6658 5.80652 67.6658 15.8153V24.813L67.831 24.951C67.9968 25.0895 70.4637 25.1705 70.7661 25.0472C71.0596 24.9279 71.0513 25.2068 71.0513 15.7782C71.0513 6.10538 71.0705 6.61414 70.6992 6.46451C70.5472 6.40306 68.3444 6.3891 68.0589 6.44775ZM80.6117 6.53035C79.8444 6.6756 78.7384 7.04269 78.1953 7.33319C77.7748 7.55785 77.124 7.97961 77.0699 8.06261C77.0526 8.08855 76.9114 8.19349 76.7561 8.29485C76.6011 8.3966 76.2092 8.76769 75.8857 9.11963C73.7551 11.436 72.9577 14.1893 73.4372 17.5738C73.7709 19.9273 75.675 22.7464 77.6965 23.8801C78.5358 24.3505 78.7155 24.4367 79.3136 24.655C82.4275 25.7914 86.0297 24.88 88.4168 22.3526C90.4056 20.2473 91.4076 16.6509 90.7775 13.8828C90.4226 12.3202 90.1967 11.7065 89.6778 10.8902C89.5156 10.6339 89.3084 10.29 89.2176 10.1251C88.9849 9.70185 87.8886 8.57137 87.2746 8.12087C85.3231 6.68996 82.868 6.10379 80.6117 6.53035ZM105.584 6.47209C104.869 6.65126 104.173 7.32282 103.909 8.08815L103.745 8.56219V10.8902C103.745 13.1534 103.75 13.2296 103.891 13.6498C104.619 15.8217 107.591 16.012 108.564 13.9491C108.848 13.3465 108.864 13.1578 108.843 10.7226L108.824 8.42932L108.63 7.99717C108.083 6.77694 106.843 6.15646 105.584 6.47209ZM106.698 9.28723L106.912 9.51345V11.2344C106.912 12.7472 106.899 12.9751 106.805 13.1199C106.537 13.5321 106.197 13.5704 105.871 13.2244L105.658 12.9982V11.2556V9.51345L105.871 9.28723C106.025 9.12443 106.14 9.06098 106.284 9.06098C106.43 9.06098 106.545 9.12443 106.698 9.28723ZM10.8207 10.1875C14.6414 11.2293 16.2024 15.8879 13.8421 19.2031C13.3959 19.8295 13.2311 19.9923 12.436 20.5933C10.402 22.1299 7.23328 21.6048 5.45141 19.4357C2.09645 15.352 5.8776 8.83911 10.8207 10.1875ZM30.8335 10.1914C32.4551 10.7218 33.7419 11.8913 34.3434 13.3812L34.559 13.916H29.4545H24.3504L24.4354 13.6601C24.6122 13.1283 25.0331 12.3781 25.3171 12.0872C25.3886 12.0138 25.5093 11.8681 25.5853 11.7628C26.557 10.4152 29.1461 9.63997 30.8335 10.1914ZM83.4954 10.2266C84.5685 10.5565 85.1663 10.9293 85.9227 11.7404C89.7432 15.8396 86.1571 22.6032 80.8499 21.3068C79.9655 21.0909 79.6454 20.9173 78.6279 20.1017C77.1089 18.8838 76.4074 16.4458 76.9445 14.2531C77.6833 11.2397 80.7197 9.37342 83.4954 10.2266ZM112.717 14.6741C112.834 14.7986 112.93 14.965 112.93 15.0444C112.93 15.4194 112.261 17.206 112.058 17.3743C112.036 17.3923 111.842 17.6468 111.625 17.9393C111.409 18.2322 111.138 18.5462 111.025 18.6376C110.909 18.7294 110.608 18.9724 110.353 19.1783C109.656 19.7418 109.014 20.0438 107.758 20.4005C106.22 20.8375 103.773 20.3714 102.436 19.387C101.515 18.7094 100.442 17.5311 100.299 17.0415C100.271 16.9502 100.157 16.6792 100.044 16.439C99.5012 15.2894 99.5887 14.6809 100.298 14.6809C100.654 14.6809 100.793 14.8245 100.962 15.37C101.037 15.6126 101.193 15.9849 101.309 16.1972C101.425 16.4094 101.521 16.607 101.521 16.6361C101.521 16.8935 102.805 18.174 103.351 18.4597C106.66 20.1954 110.485 18.7993 111.519 15.4789C111.843 14.4363 112.242 14.1693 112.717 14.6741Z" fill="white"/>
<path fill-rule="evenodd" clip-rule="evenodd" d="M15.0916 0.68859C14.9777 0.822265 14.9712 0.997436 14.9551 4.54559C14.9445 6.79929 14.9144 8.26293 14.8791 8.26293C14.8467 8.26293 14.7696 8.20666 14.708 8.13802C14.5797 7.99438 13.9119 7.55465 13.4282 7.29448C12.1451 6.60496 9.95024 6.24305 8.40276 6.4661C7.28218 6.62731 5.32916 7.36471 4.87852 7.79606C4.80968 7.8623 4.55577 8.05104 4.31428 8.21584C3.89411 8.50234 2.46471 9.97113 2.46471 10.116C2.46471 10.1535 2.30521 10.4312 2.10999 10.7333C1.5277 11.6355 1.2689 12.3167 0.913804 13.8828C0.635823 15.1091 0.75657 17.115 1.2121 18.8371C1.38551 19.4935 2.21193 21.1319 2.4143 21.2205C2.44214 21.2325 2.46471 21.2736 2.46471 21.3115C2.46471 21.545 3.59807 22.7564 4.40832 23.3888C6.5987 25.0991 9.94013 25.6094 12.4713 24.6202C13.1499 24.3553 14.375 23.6917 14.6816 23.4232L14.9096 23.2233L14.9408 23.9846C14.9693 24.6745 14.9863 24.7619 15.124 24.9171L15.2759 25.0887H16.6688C17.9467 25.0887 18.0738 25.0784 18.2096 24.9614L18.3574 24.8345V13.5585C18.3574 3.62224 18.3466 2.27113 18.2634 2.18614C18.2119 2.13307 17.9719 1.97904 17.7307 1.84337C17.4892 1.7077 17.2353 1.54451 17.1665 1.48026C16.3623 0.733281 15.3748 0.3566 15.0916 0.68859ZM67.7693 0.670235C67.6809 0.773982 67.6658 0.96791 67.6658 1.98543C67.6658 3.34571 67.6613 3.33095 68.1812 3.68169C68.3633 3.8046 68.5656 3.95662 68.6307 4.01967C68.6962 4.08271 68.908 4.22038 69.1009 4.32533C69.2942 4.43027 69.6449 4.65611 69.8796 4.8269C70.4412 5.23511 70.774 5.24708 70.9595 4.86641C71.0971 4.58389 71.0938 1.02856 70.9553 0.744853L70.8598 0.548532H69.3665C67.9995 0.548532 67.8645 0.558906 67.7693 0.670235ZM104.812 0.593621C103.921 0.71333 102.416 1.19336 101.659 1.59877C101.462 1.70452 101.223 1.81145 101.129 1.83579C100.927 1.88886 99.7296 2.7344 99.1131 3.26032C98.3047 3.94984 96.9944 5.4849 96.6929 6.0962C96.4823 6.52236 96.1775 7.06704 96.1325 7.09657C96.0535 7.14844 95.4591 8.66874 95.313 9.19426C94.7483 11.2201 94.7492 11.2105 94.7492 17.3962V22.7552L94.9003 23.1973C94.9835 23.4407 95.1202 23.7188 95.2026 23.8154C95.285 23.9124 95.3988 24.0692 95.454 24.1645C95.5983 24.4111 96.2072 24.8214 96.6445 24.9658C97.1566 25.1346 106.498 25.1534 107.602 24.9874C109.369 24.722 111.554 23.8214 112.773 22.8553C112.98 22.6913 113.207 22.5318 113.277 22.5006C113.346 22.4691 113.666 22.1782 113.989 21.8542C114.312 21.5298 114.601 21.2544 114.631 21.2421C114.662 21.2297 114.905 20.9317 115.172 20.5797C115.44 20.2277 115.717 19.8702 115.792 19.7856C115.865 19.701 116.03 19.4158 116.158 19.1516C116.286 18.887 116.428 18.626 116.475 18.571C116.521 18.5155 116.696 18.156 116.866 17.7718C118.134 14.8911 118.178 10.9564 116.975 8.0295C116.78 7.55425 116.582 7.12091 116.536 7.06585C116.49 7.01118 116.351 6.75181 116.228 6.49004C115.763 5.50565 114.184 3.64977 113.212 2.94868C113.04 2.82378 112.758 2.61151 112.585 2.47584C110.817 1.08722 107.362 0.250857 104.812 0.593621ZM107.194 5.17405C108.56 5.55153 109.655 6.72308 110.014 8.19269C110.18 8.87104 110.151 13.1199 109.977 13.7424C109.836 14.2463 109.67 14.6298 109.495 14.8588C108.693 15.9115 108.176 16.3176 107.269 16.6077C105.429 17.196 103.244 15.9446 102.661 13.969C102.474 13.3369 102.371 9.27047 102.52 8.45605C102.961 6.0563 105.058 4.58389 107.194 5.17405ZM28.7018 6.37672C27.3559 6.49484 25.2234 7.29688 24.4896 7.96086C24.3583 8.07977 24.1537 8.2302 24.0348 8.29485C23.6154 8.52389 22.3567 9.98676 22.0024 10.6571C20.9609 12.6271 20.646 13.8043 20.646 15.7243C20.646 23.7863 29.646 28.0902 35.3139 22.7388C37.2481 20.9125 37.3257 20.5071 35.8078 20.1435C35.3824 20.0418 34.773 19.8854 34.4544 19.7968C33.5922 19.5566 33.4437 19.5721 33.048 19.9452C31.177 21.7082 28.5314 21.9209 26.5084 20.4711C25.5233 19.7652 24.6939 18.6939 24.44 17.7997L24.3572 17.5072H31.1152H37.8733L38.0757 17.3065L38.2784 17.1058L38.243 15.7602C38.2227 14.975 38.1705 14.2348 38.1174 13.9826C38.0678 13.7448 37.9806 13.3258 37.9233 13.0512C37.8083 12.4986 37.279 11.272 36.9337 10.7568C36.8111 10.5741 36.6933 10.3646 36.6722 10.2912C36.5977 10.0318 35.2819 8.59252 34.846 8.29325C34.6733 8.17514 34.427 7.98879 34.2979 7.87906C33.1732 6.92419 30.5356 6.21631 28.7018 6.37672ZM46.9455 6.4681C46.4053 6.51837 45.5037 6.74502 45.2167 6.90224C45.1192 6.95571 44.9952 6.99961 44.9406 6.99961C44.1503 6.99961 42.1529 9.00033 41.3968 10.5498C40.4749 12.4379 40.4489 12.6873 40.4707 19.3918L40.4884 24.7679L40.6641 24.9283C40.8905 25.1346 43.3995 25.1817 43.6827 24.985C43.9355 24.809 43.9355 24.8085 43.9678 18.9704L43.9991 13.2843L44.1913 12.7815C44.2974 12.505 44.5419 12.056 44.7348 11.7839C45.3725 10.8842 45.3178 10.9336 46.2248 10.4333C47.1904 9.90015 48.2286 9.94524 49.1698 10.561C49.4184 10.7237 49.6418 10.8566 49.6659 10.8566C49.8972 10.8566 50.8169 12.3143 51.0246 13.0093C51.2826 13.8741 51.3018 14.3389 51.3022 19.7059C51.3029 24.7376 51.3044 24.7994 51.4305 24.9431C51.6393 25.1809 54.2182 25.1681 54.4811 24.9283L54.6568 24.7679L54.691 19.1923L54.7256 13.6167L54.919 12.985C56.1189 9.06777 60.5065 9.13918 61.8181 13.0976L61.9904 13.6167L62.0223 19.2429C62.0491 23.876 62.0697 24.8884 62.1409 24.979C62.2981 25.1801 65.0899 25.1406 65.2723 24.9347L65.4089 24.781V19.1939C65.4089 12.8968 65.4164 13.0237 64.9406 11.5576C64.5306 10.294 63.5668 8.75094 62.9014 8.29205C62.7807 8.20905 62.5595 8.02311 62.4098 7.87946C61.2264 6.74144 58.5692 6.13052 56.8622 6.60417C55.3869 7.01357 54.4326 7.58737 53.4211 8.67272L52.9378 9.19146L52.6688 8.85668C51.3451 7.2079 49.0922 6.26739 46.9455 6.4681ZM68.0589 6.44775C67.635 6.53434 67.6658 5.80652 67.6658 15.8153V24.813L67.831 24.951C67.9968 25.0895 70.4637 25.1705 70.7661 25.0472C71.0596 24.9279 71.0513 25.2068 71.0513 15.7782C71.0513 6.10538 71.0705 6.61414 70.6992 6.46451C70.5472 6.40306 68.3444 6.3891 68.0589 6.44775ZM80.6117 6.53035C79.8444 6.6756 78.7384 7.04269 78.1953 7.33319C77.7748 7.55785 77.124 7.97961 77.0699 8.06261C77.0526 8.08855 76.9114 8.19349 76.7561 8.29485C76.6011 8.3966 76.2092 8.76769 75.8857 9.11963C73.7551 11.436 72.9577 14.1893 73.4372 17.5738C73.7709 19.9273 75.675 22.7464 77.6965 23.8801C78.5358 24.3505 78.7155 24.4367 79.3136 24.655C82.4275 25.7914 86.0297 24.88 88.4168 22.3526C90.4056 20.2473 91.4076 16.6509 90.7775 13.8828C90.4226 12.3202 90.1967 11.7065 89.6778 10.8902C89.5156 10.6339 89.3084 10.29 89.2176 10.1251C88.9849 9.70185 87.8886 8.57137 87.2746 8.12087C85.3231 6.68996 82.868 6.10379 80.6117 6.53035ZM105.584 6.47209C104.869 6.65126 104.173 7.32282 103.909 8.08815L103.745 8.56219V10.8902C103.745 13.1534 103.75 13.2296 103.891 13.6498C104.619 15.8217 107.591 16.012 108.564 13.9491C108.848 13.3465 108.864 13.1578 108.843 10.7226L108.824 8.42932L108.63 7.99717C108.083 6.77694 106.843 6.15646 105.584 6.47209ZM106.698 9.28723L106.912 9.51345V11.2344C106.912 12.7472 106.899 12.9751 106.805 13.1199C106.537 13.5321 106.197 13.5704 105.871 13.2244L105.658 12.9982V11.2556V9.51345L105.871 9.28723C106.025 9.12443 106.14 9.06098 106.284 9.06098C106.43 9.06098 106.545 9.12443 106.698 9.28723ZM10.8207 10.1875C14.6414 11.2293 16.2024 15.8879 13.8421 19.2031C13.3959 19.8295 13.2311 19.9923 12.436 20.5933C10.402 22.1299 7.23328 21.6048 5.45141 19.4357C2.09645 15.352 5.8776 8.83911 10.8207 10.1875ZM30.8335 10.1914C32.4551 10.7218 33.7419 11.8913 34.3434 13.3812L34.559 13.916H29.4545H24.3504L24.4354 13.6601C24.6122 13.1283 25.0331 12.3781 25.3171 12.0872C25.3886 12.0138 25.5093 11.8681 25.5853 11.7628C26.557 10.4152 29.1461 9.63997 30.8335 10.1914ZM83.4954 10.2266C84.5685 10.5565 85.1663 10.9293 85.9227 11.7404C89.7432 15.8396 86.1571 22.6032 80.8499 21.3068C79.9655 21.0909 79.6454 20.9173 78.6279 20.1017C77.1089 18.8838 76.4074 16.4458 76.9445 14.2531C77.6833 11.2397 80.7197 9.37342 83.4954 10.2266ZM112.717 14.6741C112.834 14.7986 112.93 14.965 112.93 15.0444C112.93 15.4194 112.261 17.206 112.058 17.3743C112.036 17.3923 111.842 17.6468 111.625 17.9393C111.409 18.2322 111.138 18.5462 111.025 18.6376C110.909 18.7294 110.608 18.9724 110.353 19.1783C109.656 19.7418 109.014 20.0438 107.758 20.4005C106.22 20.8375 103.773 20.3714 102.436 19.387C101.515 18.7094 100.442 17.5311 100.299 17.0415C100.271 16.9502 100.157 16.6792 100.044 16.439C99.5012 15.2894 99.5887 14.6809 100.298 14.6809C100.654 14.6809 100.793 14.8245 100.962 15.37C101.037 15.6126 101.193 15.9849 101.309 16.1972C101.425 16.4094 101.521 16.607 101.521 16.6361C101.521 16.8935 102.805 18.174 103.351 18.4597C106.66 20.1954 110.485 18.7993 111.519 15.4789C111.843 14.4363 112.242 14.1693 112.717 14.6741Z" fill="white"/>
</g>
<defs>
<clipPath id="clip0_2_264">
<rect width="117.188" height="25" fill="white" transform="translate(0.765625 0.516846)"/>
</clipPath>
</defs>
</svg>
